<?xml version="1.0" encoding="UTF-8" standalone="no"?>
<svg
   width="577.9704"
   height="560.28558"
   viewBox="0 0 577.9704 560.28559"
   version="1.1"
   id="svg21"
   sodipodi:docname="fig1_noc_mesh.svg"
   inkscape:version="1.4 (86a8ad7, 2024-10-11)"
   inkscape:export-filename="noc_mesh.png"
   inkscape:export-xdpi="96"
   inkscape:export-ydpi="96"
   xmlns:inkscape="http://www.inkscape.org/namespaces/inkscape"
   xmlns:sodipodi="http://sodipodi.sourceforge.net/DTD/sodipodi-0.dtd"
   xmlns="http://www.w3.org/2000/svg"
   xmlns:svg="http://www.w3.org/2000/svg">
  <sodipodi:namedview
     id="namedview21"
     pagecolor="#ffffff"
     bordercolor="#cccccc"
     borderopacity="1"
     inkscape:showpageshadow="0"
     inkscape:pageopacity="1"
     inkscape:pagecheckerboard="0"
     inkscape:deskcolor="#d1d1d1"
     inkscape:zoom="0.7327394"
     inkscape:cx="503.58968"
     inkscape:cy="430.576"
     inkscape:window-width="1920"
     inkscape:window-height="1009"
     inkscape:window-x="2552"
     inkscape:window-y="-8"
     inkscape:window-maximized="1"
     inkscape:current-layer="svg21" />
  <defs
     id="defs2">
    <marker
       style="overflow:visible"
       id="marker21"
       refX="0"
       refY="0"
       orient="auto-start-reverse"
       inkscape:stockid="Rounded arrow"
       markerWidth="1"
       markerHeight="1"
       viewBox="0 0 1 1"
       inkscape:isstock="true"
       inkscape:collect="always"
       preserveAspectRatio="xMidYMid">
      <path
         transform="scale(0.7)"
         d="m -0.21114562,-4.1055728 6.42229122,3.21114561 a 1,1 90 0 1 0,1.78885438 L -0.21114562,4.1055728 A 1.236068,1.236068 31.717474 0 1 -2,3 v -6 a 1.236068,1.236068 148.28253 0 1 1.78885438,-1.1055728 z"
         style="fill:context-stroke;fill-rule:evenodd;stroke:none"
         id="path21" />
    </marker>
    <marker
       style="overflow:visible"
       id="RoundedArrow"
       refX="0"
       refY="0"
       orient="auto-start-reverse"
       inkscape:stockid="Rounded arrow"
       markerWidth="1"
       markerHeight="1"
       viewBox="0 0 1 1"
       inkscape:isstock="true"
       inkscape:collect="always"
       preserveAspectRatio="xMidYMid">
      <path
         transform="scale(0.7)"
         d="m -0.21114562,-4.1055728 6.42229122,3.21114561 a 1,1 90 0 1 0,1.78885438 L -0.21114562,4.1055728 A 1.236068,1.236068 31.717474 0 1 -2,3 v -6 a 1.236068,1.236068 148.28253 0 1 1.78885438,-1.1055728 z"
         style="fill:context-stroke;fill-rule:evenodd;stroke:none"
         id="path8" />
    </marker>
    <style
       id="style1">
      .chip { fill: #d1ffff; stroke: #00b185; stroke-width: 2; }
      .label { font-family: Arial Rounded MT Bold, Helvetica, sans-serif; font-weight: bold; font-size: 18px; fill: #121420; text-anchor: middle; dominant-baseline: middle; }
      .link { stroke: #434c5e; stroke-width: 3; stroke-linecap: round; fill: none; }
    </style>
    <!-- Bidirectional arrowheads -->
    <marker
       id="arrowEnd"
       viewBox="0 0 10 10"
       refX="9"
       refY="5"
       markerWidth="8"
       markerHeight="8"
       orient="auto">
      <path
         d="M 0,0 10,5 0,10 Z"
         fill="#111827"
         id="path1" />
    </marker>
    <marker
       id="arrowStart"
       viewBox="0 0 10 10"
       refX="1"
       refY="5"
       markerWidth="8"
       markerHeight="8"
       orient="auto">
      <path
         d="M 10,0 0,5 10,10 Z"
         fill="#111827"
         id="path2" />
    </marker>
    <marker
       id="arrowStart-0"
       viewBox="0 0 10 10"
       refX="1"
       refY="5"
       markerWidth="8"
       markerHeight="8"
       orient="auto">
      <path
         d="M 10,0 0,5 10,10 Z"
         fill="#111827"
         id="path2-9" />
    </marker>
    <marker
       id="arrowEnd-4"
       viewBox="0 0 10 10"
       refX="9"
       refY="5"
       markerWidth="8"
       markerHeight="8"
       orient="auto">
      <path
         d="M 0,0 10,5 0,10 Z"
         fill="#111827"
         id="path1-8" />
    </marker>
    <marker
       style="overflow:visible"
       id="marker21-2"
       refX="0"
       refY="0"
       orient="auto-start-reverse"
       inkscape:stockid="Rounded arrow"
       markerWidth="1"
       markerHeight="1"
       viewBox="0 0 1 1"
       inkscape:isstock="true"
       inkscape:collect="always"
       preserveAspectRatio="xMidYMid">
      <path
         transform="scale(0.7)"
         d="m -0.21114562,-4.1055728 6.42229122,3.21114561 a 1,1 90 0 1 0,1.78885438 L -0.21114562,4.1055728 A 1.236068,1.236068 31.717474 0 1 -2,3 v -6 a 1.236068,1.236068 148.28253 0 1 1.78885438,-1.1055728 z"
         style="fill:context-stroke;fill-rule:evenodd;stroke:none"
         id="path21-4" />
    </marker>
    <marker
       style="overflow:visible"
       id="RoundedArrow-5"
       refX="0"
       refY="0"
       orient="auto-start-reverse"
       inkscape:stockid="Rounded arrow"
       markerWidth="1"
       markerHeight="1"
       viewBox="0 0 1 1"
       inkscape:isstock="true"
       inkscape:collect="always"
       preserveAspectRatio="xMidYMid">
      <path
         transform="scale(0.7)"
         d="m -0.21114562,-4.1055728 6.42229122,3.21114561 a 1,1 90 0 1 0,1.78885438 L -0.21114562,4.1055728 A 1.236068,1.236068 31.717474 0 1 -2,3 v -6 a 1.236068,1.236068 148.28253 0 1 1.78885438,-1.1055728 z"
         style="fill:context-stroke;fill-rule:evenodd;stroke:none"
         id="path8-5" />
    </marker>
    <marker
       style="overflow:visible"
       id="marker21-7"
       refX="0"
       refY="0"
       orient="auto-start-reverse"
       inkscape:stockid="Rounded arrow"
       markerWidth="1"
       markerHeight="1"
       viewBox="0 0 1 1"
       inkscape:isstock="true"
       inkscape:collect="always"
       preserveAspectRatio="xMidYMid">
      <path
         transform="scale(0.7)"
         d="m -0.21114562,-4.1055728 6.42229122,3.21114561 a 1,1 90 0 1 0,1.78885438 L -0.21114562,4.1055728 A 1.236068,1.236068 31.717474 0 1 -2,3 v -6 a 1.236068,1.236068 148.28253 0 1 1.78885438,-1.1055728 z"
         style="fill:context-stroke;fill-rule:evenodd;stroke:none"
         id="path21-1" />
    </marker>
    <marker
       style="overflow:visible"
       id="RoundedArrow-1"
       refX="0"
       refY="0"
       orient="auto-start-reverse"
       inkscape:stockid="Rounded arrow"
       markerWidth="1"
       markerHeight="1"
       viewBox="0 0 1 1"
       inkscape:isstock="true"
       inkscape:collect="always"
       preserveAspectRatio="xMidYMid">
      <path
         transform="scale(0.7)"
         d="m -0.21114562,-4.1055728 6.42229122,3.21114561 a 1,1 90 0 1 0,1.78885438 L -0.21114562,4.1055728 A 1.236068,1.236068 31.717474 0 1 -2,3 v -6 a 1.236068,1.236068 148.28253 0 1 1.78885438,-1.1055728 z"
         style="fill:context-stroke;fill-rule:evenodd;stroke:none"
         id="path8-52" />
    </marker>
    <marker
       style="overflow:visible"
       id="marker21-2-2"
       refX="0"
       refY="0"
       orient="auto-start-reverse"
       inkscape:stockid="Rounded arrow"
       markerWidth="1"
       markerHeight="1"
       viewBox="0 0 1 1"
       inkscape:isstock="true"
       inkscape:collect="always"
       preserveAspectRatio="xMidYMid">
      <path
         transform="scale(0.7)"
         d="m -0.21114562,-4.1055728 6.42229122,3.21114561 a 1,1 90 0 1 0,1.78885438 L -0.21114562,4.1055728 A 1.236068,1.236068 31.717474 0 1 -2,3 v -6 a 1.236068,1.236068 148.28253 0 1 1.78885438,-1.1055728 z"
         style="fill:context-stroke;fill-rule:evenodd;stroke:none"
         id="path21-4-1" />
    </marker>
    <marker
       style="overflow:visible"
       id="RoundedArrow-5-6"
       refX="0"
       refY="0"
       orient="auto-start-reverse"
       inkscape:stockid="Rounded arrow"
       markerWidth="1"
       markerHeight="1"
       viewBox="0 0 1 1"
       inkscape:isstock="true"
       inkscape:collect="always"
       preserveAspectRatio="xMidYMid">
      <path
         transform="scale(0.7)"
         d="m -0.21114562,-4.1055728 6.42229122,3.21114561 a 1,1 90 0 1 0,1.78885438 L -0.21114562,4.1055728 A 1.236068,1.236068 31.717474 0 1 -2,3 v -6 a 1.236068,1.236068 148.28253 0 1 1.78885438,-1.1055728 z"
         style="fill:context-stroke;fill-rule:evenodd;stroke:none"
         id="path8-5-8" />
    </marker>
    <marker
       style="overflow:visible"
       id="marker21-2-7"
       refX="0"
       refY="0"
       orient="auto-start-reverse"
       inkscape:stockid="Rounded arrow"
       markerWidth="1"
       markerHeight="1"
       viewBox="0 0 1 1"
       inkscape:isstock="true"
       inkscape:collect="always"
       preserveAspectRatio="xMidYMid">
      <path
         transform="scale(0.7)"
         d="m -0.21114562,-4.1055728 6.42229122,3.21114561 a 1,1 90 0 1 0,1.78885438 L -0.21114562,4.1055728 A 1.236068,1.236068 31.717474 0 1 -2,3 v -6 a 1.236068,1.236068 148.28253 0 1 1.78885438,-1.1055728 z"
         style="fill:context-stroke;fill-rule:evenodd;stroke:none"
         id="path21-4-6" />
    </marker>
    <marker
       style="overflow:visible"
       id="RoundedArrow-5-1"
       refX="0"
       refY="0"
       orient="auto-start-reverse"
       inkscape:stockid="Rounded arrow"
       markerWidth="1"
       markerHeight="1"
       viewBox="0 0 1 1"
       inkscape:isstock="true"
       inkscape:collect="always"
       preserveAspectRatio="xMidYMid">
      <path
         transform="scale(0.7)"
         d="m -0.21114562,-4.1055728 6.42229122,3.21114561 a 1,1 90 0 1 0,1.78885438 L -0.21114562,4.1055728 A 1.236068,1.236068 31.717474 0 1 -2,3 v -6 a 1.236068,1.236068 148.28253 0 1 1.78885438,-1.1055728 z"
         style="fill:context-stroke;fill-rule:evenodd;stroke:none"
         id="path8-5-89" />
    </marker>
    <marker
       style="overflow:visible"
       id="marker21-2-79"
       refX="0"
       refY="0"
       orient="auto-start-reverse"
       inkscape:stockid="Rounded arrow"
       markerWidth="1"
       markerHeight="1"
       viewBox="0 0 1 1"
       inkscape:isstock="true"
       inkscape:collect="always"
       preserveAspectRatio="xMidYMid">
      <path
         transform="scale(0.7)"
         d="m -0.21114562,-4.1055728 6.42229122,3.21114561 a 1,1 90 0 1 0,1.78885438 L -0.21114562,4.1055728 A 1.236068,1.236068 31.717474 0 1 -2,3 v -6 a 1.236068,1.236068 148.28253 0 1 1.78885438,-1.1055728 z"
         style="fill:context-stroke;fill-rule:evenodd;stroke:none"
         id="path21-4-5" />
    </marker>
    <marker
       style="overflow:visible"
       id="RoundedArrow-5-4"
       refX="0"
       refY="0"
       orient="auto-start-reverse"
       inkscape:stockid="Rounded arrow"
       markerWidth="1"
       markerHeight="1"
       viewBox="0 0 1 1"
       inkscape:isstock="true"
       inkscape:collect="always"
       preserveAspectRatio="xMidYMid">
      <path
         transform="scale(0.7)"
         d="m -0.21114562,-4.1055728 6.42229122,3.21114561 a 1,1 90 0 1 0,1.78885438 L -0.21114562,4.1055728 A 1.236068,1.236068 31.717474 0 1 -2,3 v -6 a 1.236068,1.236068 148.28253 0 1 1.78885438,-1.1055728 z"
         style="fill:context-stroke;fill-rule:evenodd;stroke:none"
         id="path8-5-3" />
    </marker>
    <marker
       style="overflow:visible"
       id="marker21-2-23"
       refX="0"
       refY="0"
       orient="auto-start-reverse"
       inkscape:stockid="Rounded arrow"
       markerWidth="1"
       markerHeight="1"
       viewBox="0 0 1 1"
       inkscape:isstock="true"
       inkscape:collect="always"
       preserveAspectRatio="xMidYMid">
      <path
         transform="scale(0.7)"
         d="m -0.21114562,-4.1055728 6.42229122,3.21114561 a 1,1 90 0 1 0,1.78885438 L -0.21114562,4.1055728 A 1.236068,1.236068 31.717474 0 1 -2,3 v -6 a 1.236068,1.236068 148.28253 0 1 1.78885438,-1.1055728 z"
         style="fill:context-stroke;fill-rule:evenodd;stroke:none"
         id="path21-4-3" />
    </marker>
    <marker
       style="overflow:visible"
       id="RoundedArrow-5-41"
       refX="0"
       refY="0"
       orient="auto-start-reverse"
       inkscape:stockid="Rounded arrow"
       markerWidth="1"
       markerHeight="1"
       viewBox="0 0 1 1"
       inkscape:isstock="true"
       inkscape:collect="always"
       preserveAspectRatio="xMidYMid">
      <path
         transform="scale(0.7)"
         d="m -0.21114562,-4.1055728 6.42229122,3.21114561 a 1,1 90 0 1 0,1.78885438 L -0.21114562,4.1055728 A 1.236068,1.236068 31.717474 0 1 -2,3 v -6 a 1.236068,1.236068 148.28253 0 1 1.78885438,-1.1055728 z"
         style="fill:context-stroke;fill-rule:evenodd;stroke:none"
         id="path8-5-1" />
    </marker>
    <marker
       style="overflow:visible"
       id="marker21-2-23-9"
       refX="0"
       refY="0"
       orient="auto-start-reverse"
       inkscape:stockid="Rounded arrow"
       markerWidth="1"
       markerHeight="1"
       viewBox="0 0 1 1"
       inkscape:isstock="true"
       inkscape:collect="always"
       preserveAspectRatio="xMidYMid">
      <path
         transform="scale(0.7)"
         d="m -0.21114562,-4.1055728 6.42229122,3.21114561 a 1,1 90 0 1 0,1.78885438 L -0.21114562,4.1055728 A 1.236068,1.236068 31.717474 0 1 -2,3 v -6 a 1.236068,1.236068 148.28253 0 1 1.78885438,-1.1055728 z"
         style="fill:context-stroke;fill-rule:evenodd;stroke:none"
         id="path21-4-3-3" />
    </marker>
    <marker
       style="overflow:visible"
       id="RoundedArrow-5-41-1"
       refX="0"
       refY="0"
       orient="auto-start-reverse"
       inkscape:stockid="Rounded arrow"
       markerWidth="1"
       markerHeight="1"
       viewBox="0 0 1 1"
       inkscape:isstock="true"
       inkscape:collect="always"
       preserveAspectRatio="xMidYMid">
      <path
         transform="scale(0.7)"
         d="m -0.21114562,-4.1055728 6.42229122,3.21114561 a 1,1 90 0 1 0,1.78885438 L -0.21114562,4.1055728 A 1.236068,1.236068 31.717474 0 1 -2,3 v -6 a 1.236068,1.236068 148.28253 0 1 1.78885438,-1.1055728 z"
         style="fill:context-stroke;fill-rule:evenodd;stroke:none"
         id="path8-5-1-9" />
    </marker>
    <marker
       style="overflow:visible"
       id="marker21-2-23-6"
       refX="0"
       refY="0"
       orient="auto-start-reverse"
       inkscape:stockid="Rounded arrow"
       markerWidth="1"
       markerHeight="1"
       viewBox="0 0 1 1"
       inkscape:isstock="true"
       inkscape:collect="always"
       preserveAspectRatio="xMidYMid">
      <path
         transform="scale(0.7)"
         d="m -0.21114562,-4.1055728 6.42229122,3.21114561 a 1,1 90 0 1 0,1.78885438 L -0.21114562,4.1055728 A 1.236068,1.236068 31.717474 0 1 -2,3 v -6 a 1.236068,1.236068 148.28253 0 1 1.78885438,-1.1055728 z"
         style="fill:context-stroke;fill-rule:evenodd;stroke:none"
         id="path21-4-3-5" />
    </marker>
    <marker
       style="overflow:visible"
       id="RoundedArrow-5-41-0"
       refX="0"
       refY="0"
       orient="auto-start-reverse"
       inkscape:stockid="Rounded arrow"
       markerWidth="1"
       markerHeight="1"
       viewBox="0 0 1 1"
       inkscape:isstock="true"
       inkscape:collect="always"
       preserveAspectRatio="xMidYMid">
      <path
         transform="scale(0.7)"
         d="m -0.21114562,-4.1055728 6.42229122,3.21114561 a 1,1 90 0 1 0,1.78885438 L -0.21114562,4.1055728 A 1.236068,1.236068 31.717474 0 1 -2,3 v -6 a 1.236068,1.236068 148.28253 0 1 1.78885438,-1.1055728 z"
         style="fill:context-stroke;fill-rule:evenodd;stroke:none"
         id="path8-5-1-2" />
    </marker>
    <marker
       style="overflow:visible"
       id="marker21-2-23-6-0"
       refX="0"
       refY="0"
       orient="auto-start-reverse"
       inkscape:stockid="Rounded arrow"
       markerWidth="1"
       markerHeight="1"
       viewBox="0 0 1 1"
       inkscape:isstock="true"
       inkscape:collect="always"
       preserveAspectRatio="xMidYMid">
      <path
         transform="scale(0.7)"
         d="m -0.21114562,-4.1055728 6.42229122,3.21114561 a 1,1 90 0 1 0,1.78885438 L -0.21114562,4.1055728 A 1.236068,1.236068 31.717474 0 1 -2,3 v -6 a 1.236068,1.236068 148.28253 0 1 1.78885438,-1.1055728 z"
         style="fill:context-stroke;fill-rule:evenodd;stroke:none"
         id="path21-4-3-5-2" />
    </marker>
    <marker
       style="overflow:visible"
       id="RoundedArrow-5-41-0-4"
       refX="0"
       refY="0"
       orient="auto-start-reverse"
       inkscape:stockid="Rounded arrow"
       markerWidth="1"
       markerHeight="1"
       viewBox="0 0 1 1"
       inkscape:isstock="true"
       inkscape:collect="always"
       preserveAspectRatio="xMidYMid">
      <path
         transform="scale(0.7)"
         d="m -0.21114562,-4.1055728 6.42229122,3.21114561 a 1,1 90 0 1 0,1.78885438 L -0.21114562,4.1055728 A 1.236068,1.236068 31.717474 0 1 -2,3 v -6 a 1.236068,1.236068 148.28253 0 1 1.78885438,-1.1055728 z"
         style="fill:context-stroke;fill-rule:evenodd;stroke:none"
         id="path8-5-1-2-8" />
    </marker>
    <marker
       style="overflow:visible"
       id="marker21-2-23-6-5"
       refX="0"
       refY="0"
       orient="auto-start-reverse"
       inkscape:stockid="Rounded arrow"
       markerWidth="1"
       markerHeight="1"
       viewBox="0 0 1 1"
       inkscape:isstock="true"
       inkscape:collect="always"
       preserveAspectRatio="xMidYMid">
      <path
         transform="scale(0.7)"
         d="m -0.21114562,-4.1055728 6.42229122,3.21114561 a 1,1 90 0 1 0,1.78885438 L -0.21114562,4.1055728 A 1.236068,1.236068 31.717474 0 1 -2,3 v -6 a 1.236068,1.236068 148.28253 0 1 1.78885438,-1.1055728 z"
         style="fill:context-stroke;fill-rule:evenodd;stroke:none"
         id="path21-4-3-5-0" />
    </marker>
    <marker
       style="overflow:visible"
       id="RoundedArrow-5-41-0-9"
       refX="0"
       refY="0"
       orient="auto-start-reverse"
       inkscape:stockid="Rounded arrow"
       markerWidth="1"
       markerHeight="1"
       viewBox="0 0 1 1"
       inkscape:isstock="true"
       inkscape:collect="always"
       preserveAspectRatio="xMidYMid">
      <path
         transform="scale(0.7)"
         d="m -0.21114562,-4.1055728 6.42229122,3.21114561 a 1,1 90 0 1 0,1.78885438 L -0.21114562,4.1055728 A 1.236068,1.236068 31.717474 0 1 -2,3 v -6 a 1.236068,1.236068 148.28253 0 1 1.78885438,-1.1055728 z"
         style="fill:context-stroke;fill-rule:evenodd;stroke:none"
         id="path8-5-1-2-0" />
    </marker>
    <marker
       style="overflow:visible"
       id="marker21-2-23-6-6"
       refX="0"
       refY="0"
       orient="auto-start-reverse"
       inkscape:stockid="Rounded arrow"
       markerWidth="1"
       markerHeight="1"
       viewBox="0 0 1 1"
       inkscape:isstock="true"
       inkscape:collect="always"
       preserveAspectRatio="xMidYMid">
      <path
         transform="scale(0.7)"
         d="m -0.21114562,-4.1055728 6.42229122,3.21114561 a 1,1 90 0 1 0,1.78885438 L -0.21114562,4.1055728 A 1.236068,1.236068 31.717474 0 1 -2,3 v -6 a 1.236068,1.236068 148.28253 0 1 1.78885438,-1.1055728 z"
         style="fill:context-stroke;fill-rule:evenodd;stroke:none"
         id="path21-4-3-5-1" />
    </marker>
    <marker
       style="overflow:visible"
       id="RoundedArrow-5-41-0-3"
       refX="0"
       refY="0"
       orient="auto-start-reverse"
       inkscape:stockid="Rounded arrow"
       markerWidth="1"
       markerHeight="1"
       viewBox="0 0 1 1"
       inkscape:isstock="true"
       inkscape:collect="always"
       preserveAspectRatio="xMidYMid">
      <path
         transform="scale(0.7)"
         d="m -0.21114562,-4.1055728 6.42229122,3.21114561 a 1,1 90 0 1 0,1.78885438 L -0.21114562,4.1055728 A 1.236068,1.236068 31.717474 0 1 -2,3 v -6 a 1.236068,1.236068 148.28253 0 1 1.78885438,-1.1055728 z"
         style="fill:context-stroke;fill-rule:evenodd;stroke:none"
         id="path8-5-1-2-89" />
    </marker>
  </defs>
  <!-- Layout: origin (140,140), pitch 200, chip size 120 -->
  <!-- Centers: (200,200), (400,200), (600,200), ... -->
  <!-- Links (bidirectional) -->
  <!-- Row 0 -->
  <!-- Row 1 -->
  <!-- Row 2 -->
  <!-- Col 0 -->
  <line
     class="link"
     x1="86.469055"
     y1="153.52148"
     x2="86.469055"
     y2="203.50793"
     marker-start="url(#arrowStart-0)"
     marker-end="url(#arrowEnd-4)"
     id="line8-8"
     style="fill:none;stroke:#434c5e;stroke-width:3;stroke-linecap:round;marker-start:url(#marker21);marker-end:url(#RoundedArrow)" />
  <line
     class="link"
     x1="86.127869"
     y1="353.54318"
     x2="86.127869"
     y2="403.6033"
     marker-start="url(#arrowStart-0)"
     marker-end="url(#arrowEnd-4)"
     id="line8-8-1"
     style="fill:none;stroke:#434c5e;stroke-width:3;stroke-linecap:round;marker-start:url(#marker21-2);marker-end:url(#RoundedArrow-5)" />
  <line
     class="link"
     x1="286.12787"
     y1="353.54318"
     x2="286.12787"
     y2="403.6033"
     marker-start="url(#arrowStart-0)"
     marker-end="url(#arrowEnd-4)"
     id="line8-8-1-5"
     style="fill:none;stroke:#434c5e;stroke-width:3;stroke-linecap:round;marker-start:url(#marker21-2-2);marker-end:url(#RoundedArrow-5-6)" />
  <line
     class="link"
     x1="486.12787"
     y1="353.54318"
     x2="486.12787"
     y2="403.6033"
     marker-start="url(#arrowStart-0)"
     marker-end="url(#arrowEnd-4)"
     id="line8-8-1-2"
     style="fill:none;stroke:#434c5e;stroke-width:3;stroke-linecap:round;marker-start:url(#marker21-2-7);marker-end:url(#RoundedArrow-5-1)" />
  <!-- Col 1 -->
  <!-- Col 2 -->
  <!-- Mesh (3×3) -->
  <!-- Row 0 -->
  <rect
     class="chip"
     x="26.127865"
     y="18.573292"
     width="120"
     height="120"
     rx="12"
     id="rect13" />
  <text
     class="label"
     x="86.127869"
     y="78.573288"
     id="text13">PE0</text>
  <rect
     class="chip"
     x="226.12787"
     y="18.573292"
     width="120"
     height="120"
     rx="12"
     id="rect14" />
  <text
     class="label"
     x="286.12787"
     y="78.573288"
     id="text14">PE1</text>
  <rect
     class="chip"
     x="426.12787"
     y="18.573292"
     width="120"
     height="120"
     rx="12"
     id="rect15" />
  <text
     class="label"
     x="486.12787"
     y="78.573288"
     id="text15">PE2</text>
  <!-- Row 1 -->
  <rect
     class="chip"
     x="26.127865"
     y="218.5733"
     width="120"
     height="120"
     rx="12"
     id="rect16" />
  <text
     class="label"
     x="86.127869"
     y="278.57327"
     id="text16">PE3</text>
  <rect
     class="chip"
     x="226.12787"
     y="218.5733"
     width="120"
     height="120"
     rx="12"
     id="rect17" />
  <text
     class="label"
     x="286.12787"
     y="278.57327"
     id="text17">PE4</text>
  <rect
     class="chip"
     x="426.12787"
     y="218.5733"
     width="120"
     height="120"
     rx="12"
     id="rect18" />
  <text
     class="label"
     x="486.12787"
     y="278.57327"
     id="text18">PE5</text>
  <!-- Row 2 -->
  <rect
     class="chip"
     x="26.127865"
     y="418.57327"
     width="120"
     height="120"
     rx="12"
     id="rect19" />
  <text
     class="label"
     x="86.127869"
     y="478.57327"
     id="text19">PE6</text>
  <rect
     class="chip"
     x="226.12787"
     y="418.57327"
     width="120"
     height="120"
     rx="12"
     id="rect20" />
  <text
     class="label"
     x="286.12787"
     y="478.57327"
     id="text20">PE7</text>
  <rect
     class="chip"
     x="426.12787"
     y="418.57327"
     width="120"
     height="120"
     rx="12"
     id="rect21" />
  <text
     class="label"
     x="486.12787"
     y="478.57327"
     id="text21">PE8</text>
  <line
     class="link"
     x1="286.12787"
     y1="153.54321"
     x2="286.12787"
     y2="203.60339"
     marker-start="url(#arrowStart-0)"
     marker-end="url(#arrowEnd-4)"
     id="line8-8-7"
     style="fill:none;stroke:#434c5e;stroke-width:3;stroke-linecap:round;marker-start:url(#marker21-7);marker-end:url(#RoundedArrow-1)" />
  <line
     class="link"
     x1="486.12787"
     y1="153.54321"
     x2="486.12787"
     y2="203.60339"
     marker-start="url(#arrowStart-0)"
     marker-end="url(#arrowEnd-4)"
     id="line8-8-1-1"
     style="fill:none;stroke:#434c5e;stroke-width:3;stroke-linecap:round;marker-start:url(#marker21-2-79);marker-end:url(#RoundedArrow-5-4)" />
  <line
     class="link"
     x1="211.15796"
     y1="478.57327"
     x2="161.09778"
     y2="478.57327"
     marker-start="url(#arrowStart-0)"
     marker-end="url(#arrowEnd-4)"
     id="line8-8-1-3"
     style="fill:none;stroke:#434c5e;stroke-width:3;stroke-linecap:round;marker-start:url(#marker21-2-23);marker-end:url(#RoundedArrow-5-41)" />
  <line
     class="link"
     x1="211.00845"
     y1="78.573288"
     x2="161.24728"
     y2="78.573288"
     marker-start="url(#arrowStart-0)"
     marker-end="url(#arrowEnd-4)"
     id="line8-8-1-3-86"
     style="fill:none;stroke:#434c5e;stroke-width:3;stroke-linecap:round;marker-start:url(#marker21-2-23-6);marker-end:url(#RoundedArrow-5-41-0)" />
  <line
     class="link"
     x1="211.15796"
     y1="278.57327"
     x2="161.09778"
     y2="278.57327"
     marker-start="url(#arrowStart-0)"
     marker-end="url(#arrowEnd-4)"
     id="line8-8-1-3-8"
     style="fill:none;stroke:#434c5e;stroke-width:3;stroke-linecap:round;marker-start:url(#marker21-2-23-9);marker-end:url(#RoundedArrow-5-41-1)" />
  <line
     class="link"
     x1="411.09332"
     y1="78.573288"
     x2="361.33212"
     y2="78.573288"
     marker-start="url(#arrowStart-0)"
     marker-end="url(#arrowEnd-4)"
     id="line8-8-1-3-86-6"
     style="fill:none;stroke:#434c5e;stroke-width:3;stroke-linecap:round;marker-start:url(#marker21-2-23-6-0);marker-end:url(#RoundedArrow-5-41-0-4)" />
  <line
     class="link"
     x1="410.92358"
     y1="278.57327"
     x2="361.16241"
     y2="278.57327"
     marker-start="url(#arrowStart-0)"
     marker-end="url(#arrowEnd-4)"
     id="line8-8-1-3-86-0"
     style="fill:none;stroke:#434c5e;stroke-width:3;stroke-linecap:round;marker-start:url(#marker21-2-23-6-5);marker-end:url(#RoundedArrow-5-41-0-9)" />
  <line
     class="link"
     x1="411.09332"
     y1="478.57327"
     x2="361.33212"
     y2="478.57327"
     marker-start="url(#arrowStart-0)"
     marker-end="url(#arrowEnd-4)"
     id="line8-8-1-3-86-3"
     style="fill:none;stroke:#434c5e;stroke-width:3;stroke-linecap:round;marker-start:url(#marker21-2-23-6-6);marker-end:url(#RoundedArrow-5-41-0-3)" />
  <text
     xml:space="preserve"
     style="font-size:18px;line-height:1.25;font-family:'Arial Rounded MT Bold';-inkscape-font-specification:'Arial Rounded MT Bold, Normal'"
     x="485.8866"
     y="247.93399"
     id="text22"><tspan
       sodipodi:role="line"
       id="tspan21"
       x="485.8866"
       y="247.93399" /></text>
</svg>
