<?xml version="1.0" encoding="UTF-8" standalone="no"?>
<svg
   viewBox="0 0 1380 160"
   width="100%"
   height="100%"
   style="background-color: #ffffff;"
   version="1.1"
   id="svg40"
   sodipodi:docname="fig2_header_format.svg"
   inkscape:version="1.4 (86a8ad7, 2024-10-11)"
   xmlns:inkscape="http://www.inkscape.org/namespaces/inkscape"
   xmlns:sodipodi="http://sodipodi.sourceforge.net/DTD/sodipodi-0.dtd"
   xmlns="http://www.w3.org/2000/svg"
   xmlns:svg="http://www.w3.org/2000/svg">
  <defs
     id="defs40" />
  <sodipodi:namedview
     id="namedview40"
     pagecolor="#ffffff"
     bordercolor="#cccccc"
     borderopacity="1"
     inkscape:showpageshadow="0"
     inkscape:pageopacity="1"
     inkscape:pagecheckerboard="0"
     inkscape:deskcolor="#d1d1d1"
     inkscape:zoom="0.91001568"
     inkscape:cx="1117.5632"
     inkscape:cy="-170.87618"
     inkscape:window-width="1920"
     inkscape:window-height="1009"
     inkscape:window-x="-8"
     inkscape:window-y="-8"
     inkscape:window-maximized="1"
     inkscape:current-layer="svg40" />
  <style
     id="style1">
        .box { stroke: #000000; stroke-width: 2; }
        .tick { stroke: #000000; stroke-width: 2; fill: none; }
        .txt-idx { font-family: &quot;Times New Roman&quot;, Times, serif; font-size: 18px; fill: #000000; }
        .txt-name { font-family: &quot;Times New Roman&quot;, Times, serif; font-size: 22px; fill: #000000; }
        .txt-width { font-family: &quot;Times New Roman&quot;, Times, serif; font-size: 20px; fill: #000000; }
    </style>
  <rect
     x="50"
     y="50"
     width="160"
     height="50"
     fill="#ccf5f0"
     id="rect1"
     style="stroke:#000000;stroke-width:2;fill:#ccf5f0;fill-opacity:1" />
  <rect
     x="210"
     y="50"
     width="160"
     height="50"
     fill="#ccf5f0"
     id="rect2"
     style="stroke:#000000;stroke-width:2" />
  <rect
     x="370"
     y="50"
     width="160"
     height="50"
     fill="#fce4e4"
     id="rect3"
     style="stroke:#000000;stroke-width:2;fill:#fce4e4;fill-opacity:1" />
  <rect
     x="530"
     y="50"
     width="160"
     height="50"
     fill="#fce4e4"
     id="rect4"
     style="stroke:#000000;stroke-width:2" />
  <rect
     x="690"
     y="50"
     width="80"
     height="50"
     fill="#fcb96b"
     id="rect5"
     style="stroke:#000000;stroke-width:2" />
  <rect
     x="770"
     y="50"
     width="160"
     height="50"
     fill="#f2fad6"
     id="rect6"
     style="stroke:#000000;stroke-width:2" />
  <rect
     x="930.00006"
     y="50"
     width="200"
     height="50"
     fill="#e8e8e8"
     id="rect7"
     style="stroke:#000000;stroke-width:2" />
  <rect
     x="1210"
     y="50"
     width="120"
     height="50"
     fill="#9ef5a8"
     id="rect8"
     style="stroke:#000000;stroke-width:2" />
  <rect
     x="1130"
     y="50"
     width="80"
     height="50"
     fill="#9ef5a8"
     id="rect8-8"
     style="fill:#29d4ff;fill-opacity:1;stroke:#000000;stroke-width:2" />
  <path
     class="tick"
     d="         M 90 50 v 6 M 130 50 v 6 M 170 50 v 6          M 250 50 v 6 M 290 50 v 6 M 330 50 v 6          M 410 50 v 6 M 450 50 v 6 M 490 50 v 6          M 570 50 v 6 M 610 50 v 6 M 650 50 v 6          M 730 50 v 6          M 810 50 v 6 M 850 50 v 6 M 890 50 v 6          M 970 50 v 6 M 1010 50 v 6 M 1050 50 v 6 M 1090 50 v 6 M 1130 50 v 6 M 1170 50 v 6          M 1250 50 v 6 M 1290 50 v 6"
     id="path8" />
  <path
     class="tick"
     d="         M 90 100 v -6 M 130 100 v -6 M 170 100 v -6          M 250 100 v -6 M 290 100 v -6 M 330 100 v -6          M 410 100 v -6 M 450 100 v -6 M 490 100 v -6          M 570 100 v -6 M 610 100 v -6 M 650 100 v -6          M 730 100 v -6          M 810 100 v -6 M 850 100 v -6 M 890 100 v -6          M 970 100 v -6 M 1010 100 v -6 M 1050 100 v -6 M 1090 100 v -6 M 1130 100 v -6 M 1170 100 v -6          M 1250 100 v -6 M 1290 100 v -6"
     id="path9" />
  <text
     x="56"
     y="42"
     class="txt-idx"
     text-anchor="start"
     id="text9">31</text>
  <text
     x="202"
     y="42"
     class="txt-idx"
     text-anchor="end"
     id="text10">28</text>
  <text
     x="218"
     y="42"
     class="txt-idx"
     text-anchor="start"
     id="text11">27</text>
  <text
     x="362"
     y="42"
     class="txt-idx"
     text-anchor="end"
     id="text12">24</text>
  <text
     x="378"
     y="42"
     class="txt-idx"
     text-anchor="start"
     id="text13">23</text>
  <text
     x="522"
     y="42"
     class="txt-idx"
     text-anchor="end"
     id="text14">20</text>
  <text
     x="538"
     y="42"
     class="txt-idx"
     text-anchor="start"
     id="text15">19</text>
  <text
     x="682"
     y="42"
     class="txt-idx"
     text-anchor="end"
     id="text16">16</text>
  <text
     x="698"
     y="42"
     class="txt-idx"
     text-anchor="start"
     id="text17">15</text>
  <text
     x="762"
     y="42"
     class="txt-idx"
     text-anchor="end"
     id="text18">14</text>
  <text
     x="778"
     y="42"
     class="txt-idx"
     text-anchor="start"
     id="text19">13</text>
  <text
     x="922"
     y="42"
     class="txt-idx"
     text-anchor="end"
     id="text20">10</text>
  <text
     x="938"
     y="42"
     class="txt-idx"
     text-anchor="start"
     id="text21">9</text>
  <text
     x="1202"
     y="42"
     class="txt-idx"
     text-anchor="end"
     id="text22">3</text>
  <text
     x="1218"
     y="42"
     class="txt-idx"
     text-anchor="start"
     id="text23">2</text>
  <text
     x="1122.4147"
     y="42.210938"
     class="txt-idx"
     text-anchor="end"
     id="text22-9"
     style="font-size:18px;font-family:'Times New Roman', Times, serif;fill:#000000">5</text>
  <text
     x="1138.4147"
     y="42.210938"
     class="txt-idx"
     text-anchor="start"
     id="text23-4"
     style="font-size:18px;font-family:'Times New Roman', Times, serif;fill:#000000">4</text>
  <text
     x="1324"
     y="42"
     class="txt-idx"
     text-anchor="end"
     id="text24">0</text>
  <text
     x="130"
     y="82"
     class="txt-name"
     text-anchor="middle"
     id="text25">DSTX</text>
  <text
     x="290"
     y="82"
     class="txt-name"
     text-anchor="middle"
     id="text26">DSTY</text>
  <text
     x="450"
     y="82"
     class="txt-name"
     text-anchor="middle"
     id="text27">SRCX</text>
  <text
     x="610"
     y="82"
     class="txt-name"
     text-anchor="middle"
     id="text28">SRCY</text>
  <text
     x="730"
     y="82"
     class="txt-name"
     text-anchor="middle"
     id="text29">FLIT</text>
  <text
     x="850"
     y="82"
     class="txt-name"
     text-anchor="middle"
     id="text30">LEN</text>
  <text
     x="1029.3413"
     y="82"
     class="txt-name"
     text-anchor="middle"
     id="text31">RSD</text>
  <text
     x="1270"
     y="82"
     class="txt-name"
     text-anchor="middle"
     id="text32">MSG</text>
  <text
     x="1171.5399"
     y="82"
     class="txt-name"
     text-anchor="middle"
     id="text32-8"
     style="font-size:22px;font-family:'Times New Roman', Times, serif;fill:#000000">VCID</text>
  <text
     x="130"
     y="128"
     class="txt-width"
     text-anchor="middle"
     id="text33">4</text>
  <text
     x="290"
     y="128"
     class="txt-width"
     text-anchor="middle"
     id="text34">4</text>
  <text
     x="450"
     y="128"
     class="txt-width"
     text-anchor="middle"
     id="text35">4</text>
  <text
     x="610"
     y="128"
     class="txt-width"
     text-anchor="middle"
     id="text36">4</text>
  <text
     x="730"
     y="128"
     class="txt-width"
     text-anchor="middle"
     id="text37">2</text>
  <text
     x="850"
     y="128"
     class="txt-width"
     text-anchor="middle"
     id="text38">4</text>
  <text
     x="1070"
     y="128"
     class="txt-width"
     text-anchor="middle"
     id="text39">7</text>
  <text
     x="1270"
     y="128"
     class="txt-width"
     text-anchor="middle"
     id="text40">3</text>
</svg>
